# xmcd
#
# Track frame offsets:
#	150
#	18226
#	41247
#	65953
#	85195
#	102634
#	117158
#	139652
#	161285
#
# Disc length: 2451 seconds
#
# Revision: 0
# Processed by: cddbd v1.5PL3 Copyright (c) Steve Scherf et al.
# Submitted via: dBpowerAMP V4.0
#
DISCID=78099109
DTITLE=Various Artist - Hard Daze
DYEAR=1900
DGENRE=Blues
TTITLE0=I'm So Tired - Karen Lawrence and Blues By Nature
TTITLE1=Break Down - Karen Lawrence and Blues By Nature
TTITLE2=Bad Spell - Karen Lawrence and Blues By Nature
TTITLE3=Rain - Karen Lawrence and Blues By Nature
TTITLE4=Travelin' Blues - Karen Lawtrence and Blues By Nature
TTITLE5=Your're Gonna Need My Help - Karen Lawrence and Blues By Nature
TTITLE6=Hard Day - Karen Lawrence and Blues By Nature
TTITLE7=Salt Tears - Karen Lawrence and Blues By Nature
TTITLE8=DATA
EXTD=
EXTT0=
EXTT1=
EXTT2=
EXTT3=
EXTT4=
EXTT5=
EXTT6=
EXTT7=
EXTT8=
PLAYORDER=
